<?xml version="1.0" standalone="no"?>
<!DOCTYPE svg PUBLIC "-//W3C//DTD SVG 20010904//EN"
 "http://www.w3.org/TR/2001/REC-SVG-20010904/DTD/svg10.dtd">
<svg version="1.0" xmlns="http://www.w3.org/2000/svg"
 width="512.000000pt" height="512.000000pt" viewBox="0 0 512.000000 512.000000"
 preserveAspectRatio="xMidYMid meet">
<metadata>
Created by potrace 1.11, written by Peter Selinger 2001-2013
</metadata>
<g transform="translate(0.000000,512.000000) scale(0.100000,-0.100000)"
fill="#000000" stroke="none">
<path d="M4666 4731 l-108 -109 -502 5 c-564 6 -578 5 -710 -65 -125 -66 -230
-194 -270 -332 -10 -33 -21 -128 -27 -240 -5 -101 -11 -185 -12 -187 -1 -1
-36 8 -77 20 -70 20 -96 21 -395 21 -294 0 -326 -2 -395 -21 -41 -12 -83 -24
-92 -28 -15 -6 -18 -2 -18 25 0 54 -40 191 -81 278 -51 111 -110 191 -206 283
-126 120 -275 198 -447 233 -107 23 -302 24 -390 2 -335 -81 -593 -324 -692
-651 -24 -81 -28 -109 -32 -282 -4 -189 -4 -193 16 -193 11 0 27 -2 35 -5 11
-5 15 22 20 161 3 91 8 168 10 170 3 3 31 -9 64 -25 118 -60 225 -74 358 -46
153 32 288 133 355 265 l33 65 17 -67 c52 -211 220 -378 435 -433 32 -8 77
-15 100 -16 77 -1 79 -6 24 -88 -106 -161 -129 -264 -129 -588 l0 -243 95 0
95 0 0 306 c0 298 1 306 19 301 11 -3 380 -72 820 -153 l801 -149 0 -153 0
-153 118 2 c64 1 129 -3 143 -9 24 -10 26 -16 32 -94 3 -46 8 -90 11 -98 4 -9
28 -23 55 -33 46 -16 62 -30 152 -136 15 -17 23 -34 18 -36 -4 -3 -8 -36 -8
-73 0 -37 -4 -78 -9 -91 -6 -18 -4 -33 7 -52 14 -25 9 -48 -108 -478 l-123
-451 28 -38 c15 -20 74 -94 130 -165 l102 -127 130 164 130 164 -123 453 -124
453 55 88 c29 48 54 90 54 92 0 3 -27 19 -60 38 -53 29 -58 33 -38 41 l22 8
-25 16 c-50 33 -82 70 -105 118 -39 82 -40 81 89 88 64 3 140 14 177 25 l65
19 3 40 3 41 -53 -13 c-46 -10 -64 -9 -133 7 -138 32 -364 160 -409 231 -10
16 -15 69 -19 192 -3 140 -8 182 -27 240 -32 100 -92 211 -157 290 l-57 69 22
85 c26 99 79 211 139 293 l43 58 231 0 230 0 47 -39 c80 -67 175 -107 285
-121 61 -7 180 0 218 15 12 5 20 -27 44 -195 16 -110 32 -205 36 -211 4 -7 39
-1 103 19 83 26 98 28 103 15 11 -28 -6 -208 -28 -288 -34 -130 -35 -120 4
-132 l35 -10 11 55 c6 30 11 66 11 79 0 19 5 23 29 23 34 0 71 39 71 76 0 31
-39 73 -70 76 -22 3 -26 10 -37 73 -6 38 -16 78 -22 90 -5 11 -15 127 -21 258
l-11 238 26 31 c14 17 39 57 55 88 79 156 80 341 4 493 -26 52 -93 147 -104
147 -3 0 -54 -49 -114 -109z"/>
<path d="M3590 3618 c-36 -19 -65 -77 -56 -112 9 -35 46 -73 81 -82 63 -16
133 54 121 121 -12 63 -90 102 -146 73z m115 -52 c19 -29 10 -54 -21 -62 -46
-12 -72 37 -38 70 22 22 41 20 59 -8z"/>
<path d="M4175 3618 c-80 -44 -72 -157 13 -189 63 -24 132 26 132 95 -1 79
-80 130 -145 94z m120 -52 c19 -29 10 -54 -21 -62 -46 -12 -72 37 -38 70 22
22 41 20 59 -8z"/>
<path d="M780 3477 c-14 -7 -33 -29 -43 -49 -16 -33 -17 -40 -3 -73 35 -83
159 -75 181 12 9 38 -13 91 -45 108 -35 18 -57 19 -90 2z m114 -49 c16 -26 -4
-53 -40 -53 -23 0 -30 5 -32 23 -7 47 47 69 72 30z"/>
<path d="M1411 3477 c-53 -31 -66 -98 -26 -145 30 -36 69 -45 112 -27 38 16
53 41 53 89 0 69 -80 116 -139 83z m123 -49 c16 -26 -4 -53 -40 -53 -23 0 -30
5 -32 23 -7 47 47 69 72 30z"/>
<path d="M3794 3324 c-11 -44 14 -54 132 -54 86 0 105 3 125 19 20 16 22 23
13 38 -10 16 -28 18 -137 21 l-126 3 -7 -27z"/>
<path d="M3707 3145 c-9 -8 -14 -22 -10 -31 7 -20 66 -48 131 -64 155 -36 391
38 317 100 -12 10 -24 8 -68 -11 -43 -20 -68 -24 -147 -23 -88 0 -113 5 -191
38 -10 4 -23 1 -32 -9z"/>
<path d="M310 3040 c-8 -5 -34 -10 -57 -10 l-43 0 0 -185 0 -185 231 0 231 0
-51 40 c-104 82 -171 162 -231 273 -42 77 -52 85 -80 67z"/>
<path d="M2154 2436 c-28 -28 -34 -42 -34 -76 0 -53 29 -95 75 -110 75 -25
145 29 145 110 0 34 -6 48 -34 76 -28 28 -42 34 -76 34 -34 0 -48 -6 -76 -34z
m144 -22 c24 -17 29 -53 10 -72 -19 -19 -55 -14 -72 10 -20 29 -20 34 4 58 24
24 29 24 58 4z"/>
<path d="M2814 2436 c-61 -61 -44 -150 34 -183 75 -31 152 22 152 107 0 34 -6
48 -34 76 -28 28 -42 34 -76 34 -34 0 -48 -6 -76 -34z m156 -26 c24 -24 24
-29 4 -58 -17 -24 -53 -29 -72 -10 -19 19 -14 55 10 72 29 20 34 20 58 -4z"/>
<path d="M670 2442 c-201 -75 -358 -248 -420 -462 -18 -60 -23 -111 -27 -260
l-5 -185 45 -95 c51 -107 137 -253 206 -350 l46 -65 5 455 c6 486 6 485 60
605 31 67 89 151 139 200 45 43 44 41 20 138 -11 42 -8 41 -69 19z"/>
<path d="M2165 1280 c-44 -27 -87 -49 -95 -50 -9 0 -67 -17 -130 -39 -90 -30
-114 -42 -112 -55 2 -10 -31 -48 -84 -98 -96 -92 -151 -166 -199 -272 -54
-118 -69 -200 -70 -375 l0 -154 120 -48 c165 -66 295 -105 465 -139 516 -102
1026 -49 1509 158 l84 36 -7 150 c-7 162 -21 240 -63 345 -51 127 -128 233
-237 324 -38 31 -61 58 -61 71 0 17 -20 26 -131 63 -78 25 -163 61 -208 88
-42 25 -81 45 -86 45 -5 0 -9 -41 -8 -93 1 -111 -20 -168 -84 -234 -56 -57
-124 -85 -208 -85 -112 0 -199 51 -258 152 -24 40 -27 58 -31 153 -2 72 -7
107 -15 106 -6 0 -47 -22 -91 -49z m313 -550 l62 -101 -61 -242 c-34 -133 -65
-245 -69 -249 -3 -5 -46 128 -94 294 -49 166 -85 304 -80 305 5 2 43 23 84 47
41 25 80 45 85 45 6 1 38 -44 73 -99z m323 53 c46 -25 85 -47 87 -48 4 -3
-171 -595 -177 -595 -3 0 -34 110 -69 245 l-62 245 62 100 c35 55 66 100 69
100 4 0 44 -21 90 -47z"/>
</g>
</svg>
